<svg height="14px" viewBox="0 0 328 43" fill="none" xmlns="http://www.w3.org/2000/svg">
<path d="M79.1561 36.117V30.5756H87.0126V10.8398L79.0706 16.7221V10.1151L86.3721 5H93.4174V30.5756H99.6514V36.117H79.1561Z" fill="white"/>
<path d="M52.913 36.117V5H62.9472C65.1675 5 67.089 5.38363 68.7115 6.1509C70.3341 6.91817 71.5866 8.01223 72.469 9.4331C73.3799 10.854 73.8354 12.5306 73.8354 14.463C73.8354 16.4806 73.3372 18.2851 72.3409 19.8765C71.3731 21.4678 70.0494 22.6187 68.3699 23.3292L74.2624 36.117H67.3025L62.264 24.3522H59.2751V36.117H52.913ZM59.2751 18.8108H62.9472C64.3705 18.8108 65.4664 18.4556 66.235 17.7452C67.032 17.0347 67.4306 16.0401 67.4306 14.7613C67.4306 13.4257 67.032 12.3885 66.235 11.6497C65.4664 10.9108 64.3705 10.5414 62.9472 10.5414H59.2751V18.8108Z" fill="white"/>
<path d="M37.1739 36.5432C35.039 36.5432 33.1887 36.188 31.6231 35.4776C30.0859 34.7387 28.8904 33.7015 28.0364 32.3659C27.1824 31.0018 26.7554 29.4105 26.7554 27.5918H33.1602C33.1602 28.7285 33.5018 29.6236 34.185 30.2772C34.8967 30.9024 35.893 31.215 37.1739 31.215C38.4834 31.215 39.4797 30.9024 40.1628 30.2772C40.846 29.652 41.1876 28.7569 41.1876 27.5918V25.0342C41.1876 23.8691 40.8318 22.9739 40.1201 22.3488C39.437 21.6952 38.4549 21.3684 37.1739 21.3684H33.5018V15.8696L39.7785 10.3282H28.2499V5H46.3115V10.4988L37.1739 18.5551V15.9549C40.3906 15.9549 42.924 16.7648 44.7743 18.3846C46.653 20.0043 47.5924 22.2067 47.5924 24.9916V27.5918C47.5924 29.4105 47.1654 31.0018 46.3115 32.3659C45.4859 33.7015 44.2904 34.7387 42.7248 35.4776C41.1591 36.188 39.3089 36.5432 37.1739 36.5432Z" fill="white"/>
<path d="M7.72847 36.117L0 5H6.6183L10.9309 24.6506C11.0732 25.3326 11.244 26.1993 11.4433 27.2508C11.671 28.3022 11.8418 29.1973 11.9556 29.9362C12.0695 29.1973 12.2118 28.3022 12.3826 27.2508C12.5534 26.1993 12.71 25.3184 12.8523 24.6079L17.0368 5H23.4843L15.8412 36.117H7.72847Z" fill="white"/>
<path fill-rule="evenodd" clip-rule="evenodd" d="M138 4.81654H145.555C146.806 4.81654 147.991 4.91048 149.111 5.084C150.395 5.27078 151.515 5.71119 152.497 6.38039C154.179 7.55465 155.164 9.16382 155.436 11.2278C155.578 12.2473 155.638 13.4011 155.661 14.6771V26.2037C155.61 30.0602 154.953 32.6613 153.671 33.992C152.694 35.0148 151.532 35.6713 150.159 35.9531C149.576 36.0631 148.225 36.1244 146.124 36.1244H138V4.81654ZM142.241 8.34155V32.5994H146.138C148.491 32.5994 149.984 31.9728 150.641 30.7488C151.172 29.7149 151.435 28.0062 151.424 25.6229V15.007C151.424 12.6131 151.135 10.989 150.567 10.0944C149.833 8.95438 148.357 8.37415 146.138 8.34155H142.241Z" fill="white"/>
<path fill-rule="evenodd" clip-rule="evenodd" d="M161.28 4.81654H175.427V8.34155H165.608V18.2689H174.826V21.8078H165.608V32.5994H175.73V36.1244H161.28V4.81654Z" fill="white"/>
<path fill-rule="evenodd" clip-rule="evenodd" d="M197.405 4.81654V8.34155H190.288V36.1244H186.052V8.34155H178.941V4.81654H197.405Z" fill="white"/>
<path fill-rule="evenodd" clip-rule="evenodd" d="M211.179 4.81654C212.176 4.82317 213.076 4.92761 213.911 5.10444C217.104 5.72611 218.715 8.22274 218.756 12.6048C218.756 14.8981 218.343 16.6554 217.491 17.876C216.679 19.0122 215.09 19.7853 212.735 20.1859C214.193 20.3517 215.258 20.6197 215.899 21.0082C216.824 21.5663 217.4 22.4703 217.633 23.7159C217.773 24.5426 217.871 25.5184 217.918 26.6225L218.093 30.3072C218.169 31.7081 218.285 32.8111 218.445 33.614C218.541 34.1859 218.751 35.0347 219.079 36.1244H214.578L214.161 34.1312C214.036 33.5797 213.961 32.847 213.911 31.9728L213.762 29.1567L213.6 26.2219C213.413 23.9662 212.529 22.6217 210.975 22.188C210.305 22.0023 209.555 21.9094 208.705 21.9094H205.731V36.1244H201.419V4.81654H211.179ZM205.731 8.34155V18.3844H208.822C209.724 18.3844 210.521 18.3176 211.196 18.1988C212.529 17.928 213.449 17.277 213.961 16.2205C214.284 15.5253 214.45 14.377 214.45 12.7645C214.45 11.0183 213.967 9.80372 213 9.12071C212.308 8.61785 210.996 8.36863 209.066 8.34155H205.731Z" fill="white"/>
<path fill-rule="evenodd" clip-rule="evenodd" d="M230.304 4.81654H235.964L243.162 36.1244H238.646L237.154 28.9816H228.791L227.261 36.1244H223.093L230.304 4.81654ZM229.531 25.4427H236.361L233.052 8.76373L229.531 25.4427Z" fill="white"/>
<path fill-rule="evenodd" clip-rule="evenodd" d="M253.248 4.81654L261.525 31.7921V4.81654H265.64V36.1244H258.762L250.485 9.43182V36.1244H246.373V4.81654H253.248Z" fill="white"/>
<path fill-rule="evenodd" clip-rule="evenodd" d="M280.09 42.5466H277.681V0H280.09V42.5466Z" fill="white"/>
<path fill-rule="evenodd" clip-rule="evenodd" d="M292.131 4.81654H306.289V8.34155H296.462V18.2689H305.694V21.8078H296.462V32.5994H306.581V36.1244H292.131V4.81654Z" fill="white"/>
<path fill-rule="evenodd" clip-rule="evenodd" d="M314.019 26.0159V27.7567C314.005 28.6574 314.088 29.4688 314.276 30.2456C314.697 32.366 316.07 33.4314 318.403 33.411C319.269 33.4314 320.064 33.2755 320.77 32.9708C322.348 32.3456 323.18 30.8598 323.225 28.5274C323.205 26.9111 322.679 25.6567 321.636 24.7637C320.896 24.1726 320.029 23.5732 318.998 22.9882L315.934 21.2353C314.72 20.561 313.7 19.8602 312.888 19.1298C311.193 17.6611 310.339 15.5231 310.339 12.7571C310.367 9.71838 311.313 7.5914 313.193 6.30563C314.583 5.34047 316.506 4.85183 318.947 4.81658C321.907 4.81658 324.057 5.54044 325.379 6.95127C326.422 8.0839 326.954 10.3089 326.954 13.6368V14.2632H322.724V13.5068L322.645 11.8905C322.377 9.4804 321.124 8.31306 318.876 8.34777C316.021 8.35273 314.595 9.79881 314.563 12.6386C314.563 14.4571 315.452 15.9352 317.249 17.0705C318.338 17.801 319.585 18.5304 320.987 19.2482C322.377 19.9842 323.51 20.68 324.376 21.3173C326.422 22.8868 327.453 25.2391 327.453 28.3571C327.399 34.0627 324.388 36.9262 318.417 36.9262C315.848 36.9537 313.877 36.4238 312.493 35.3435C310.863 34.0373 309.995 32.2007 309.861 29.7696L309.792 27.2554V26.0159H314.019Z" fill="white"/>
</svg>